<?xml version="1.0" encoding="UTF-8" standalone="no"?>
<svg
   xmlns:dc="http://purl.org/dc/elements/1.1/"
   xmlns:cc="http://creativecommons.org/ns#"
   xmlns:rdf="http://www.w3.org/1999/02/22-rdf-syntax-ns#"
   xmlns:svg="http://www.w3.org/2000/svg"
   xmlns="http://www.w3.org/2000/svg"
   viewBox="0 0 933.33331 933.33331"
   height="933.33331"
   width="933.33331"
   xml:space="preserve"
   id="svg2"
   version="1.1"><metadata
     id="metadata8"><rdf:RDF><cc:Work
         rdf:about=""><dc:format>image/svg+xml</dc:format><dc:type
           rdf:resource="http://purl.org/dc/dcmitype/StillImage" /></cc:Work></rdf:RDF></metadata><defs
     id="defs6"><clipPath
       id="clipPath18"
       clipPathUnits="userSpaceOnUse"><path
         id="path16"
         d="M 0,700 H 700 V 0 H 0 Z" /></clipPath></defs><g
     transform="matrix(1.3333333,0,0,-1.3333333,0,933.33333)"
     id="g10"><g
       id="g12"><g
         clip-path="url(#clipPath18)"
         id="g14"><g
           transform="translate(22.8101,415.0854)"
           id="g20"><path
             id="path22"
             style="fill:#206b33;fill-opacity:1;fill-rule:nonzero;stroke:none"
             d="m 0,0 -10.31,0.492 0.988,-8.831 v -12.598 l 0.65,-19.47 v -30.426 -33.374 l -0.65,-24.708 -0.988,-10.63 10.635,0.654 h 11.452 l 16.524,-0.654 24.538,0.654 h 2.292 v 12.927 c -4.909,-1.313 -10.144,-1.967 -15.87,-1.967 H 25.688 21.429 v 7.526 19.958 l -0.325,30.101 0.325,29.939 v 19.799 9.481 h 3.109 13.252 c 5.889,0 11.781,-0.488 17.341,-1.796 V 0.492 H 47.934 L 29.939,0 H 13.252 Z m 55.131,0.492 c 4.25,-0.163 8.018,-0.325 11.289,-0.817 17.337,-1.8 30.756,-8.835 40.408,-20.779 9.489,-11.939 14.231,-26.334 14.231,-43.349 0,-20.292 -6.055,-37.462 -18.324,-51.377 -6.376,-7.192 -13.74,-12.919 -22.087,-16.843 -7.685,-3.764 -16.195,-5.894 -25.517,-6.218 v 12.927 c 21.596,5.726 33.864,24.7 33.864,60.04 0,34.843 -15.053,48.583 -33.864,53.001 z" /></g><g
           transform="translate(273.769,285.5225)"
           id="g24"><path
             id="path26"
             style="fill:#206b33;fill-opacity:1;fill-rule:nonzero;stroke:none"
             d="m 0,0 2.288,12.265 4.254,30.263 6.056,45.646 2.45,19.471 c 1.151,7.201 2.13,14.394 3.109,21.762 5.73,-0.658 11.29,-0.658 17.016,-0.167 L 80.977,33.369 c 15.707,31.739 31.084,63.803 46.954,95.704 5.56,-0.491 11.944,-0.324 17.341,0.659 5.729,-46.467 11.127,-92.762 17.011,-139.058 -10.635,0.654 -21.433,0.816 -32.064,-0.492 L 120.896,83.107 101.593,42.208 82.944,4.418 76.397,-9.818 H 68.875 L 24.538,82.936 C 21.595,52.181 18.649,21.429 15.869,-9.326 c -6.051,0.487 -11.944,0.654 -17.832,0 z" /></g><g
           transform="translate(555.9736,372.8784)"
           id="g28"><path
             id="path30"
             style="fill:#206b33;fill-opacity:1;fill-rule:nonzero;stroke:none"
             d="m 0,0 c 9.156,-0.654 18.32,-0.817 27.317,0 l 0.326,-24.379 C 35.819,-8.506 37.786,2.129 61.349,2.455 60.04,-6.706 59.711,-15.866 60.523,-25.03 l -2.125,-1.8 c 0.497,0.655 -26.826,8.672 -29.938,-14.719 -0.163,-1.642 -0.163,-2.951 -0.163,-4.259 v -3.597 c 0,-15.869 0.325,-31.901 1.475,-47.771 L 0,-97.013 C 0.979,-75.088 4.247,-20.287 0,0" /></g><g
           transform="translate(489.7158,375.9888)"
           id="g32"><path
             id="path34"
             style="fill:#206b33;fill-opacity:1;fill-rule:nonzero;stroke:none"
             d="m 0,0 c -12.105,-0.983 -23.558,-6.38 -34.519,-13.415 l 2.456,-12.598 1.962,0.325 C -19.799,-15.377 -8.51,-13.906 0,-16.523 Z m 0,-53.66 v 8.669 c -2.787,-0.817 -6.059,-1.638 -9.818,-2.284 -15.707,-2.292 -31.573,-10.473 -31.573,-28.468 0,-12.272 6.052,-22.904 19.629,-26.179 7.531,-1.8 15.053,-1.467 21.762,1.637 L 0,-89 c -0.491,-0.162 -0.82,-0.162 -1.312,-0.162 -8.176,0 -12.598,5.564 -12.269,16.691 0.329,10.794 6.709,15.707 13.581,18.811 m 13.74,5.402 C 10.469,-50.063 5.072,-51.372 0,-53.66 v 8.669 c 21.104,7.201 14.729,23.887 0,28.468 V 0 c 5.56,0.325 11.281,-0.167 17.179,-1.8 16.515,-4.418 22.574,-18.158 22.574,-33.865 v -41.548 c 0,-6.056 -1.962,-12.603 4.91,-15.057 2.125,-0.817 4.746,-1.143 7.03,-0.984 l -0.654,-5.068 C 20.287,-115.012 14.232,-87.686 13.086,-89.32 9.323,-94.558 4.909,-98.159 0,-100.285 V -89 c 15.049,1.147 12.595,20.451 13.74,40.742" /></g><g
           transform="translate(641.5332,371.5723)"
           id="g36"><path
             id="path38"
             style="fill:#206b33;fill-opacity:1;fill-rule:nonzero;stroke:none"
             d="M 0,0 -0.825,25.192 28.135,38.12 27.81,29.935 26.988,20.12 V 11.777 -0.329 c 5.898,0.162 11.945,-0.488 17.341,1.634 -0.812,-3.76 -0.812,-7.356 0,-11.123 l -18.482,0.491 v -46.295 -13.09 c 0,-7.201 0.329,-12.435 2.125,-15.053 3.929,-5.397 11.615,-5.23 17.995,-2.446 l -0.654,-8.348 -4.088,-1.47 c -16.854,-6.056 -39.099,-4.26 -41.391,16.194 -0.325,2.454 -0.492,5.231 -0.492,8.177 v 15.869 46.462 c -4.58,-0.491 -8.668,-0.491 -13.252,-0.491 0.825,3.6 0.825,6.876 0,10.801 z" /></g><g
           transform="translate(179.7739,371.4014)"
           id="g40"><path
             id="path42"
             style="fill:#206b33;fill-opacity:1;fill-rule:nonzero;stroke:none"
             d="m 0,0 h 39.328 l 0.984,-2.333 H -0.983 Z M -4.842,-11.494 H 44.17 l 1.163,-2.758 H -6.005 Z M -9.86,-23.408 h 59.052 l 1.334,-3.176 h -61.724 z m -5.197,-12.331 h 69.442 l 1.512,-3.593 h -72.466 z m -5.371,-12.753 h 80.185 l 1.692,-4.009 h -83.57 z m -5.547,-13.169 h 91.279 l 1.866,-4.43 h -95.012 z m -5.726,-13.59 H 71.03 l 2.113,-5.014 H -33.814 Z m -5.972,-14.173 H 77.001 l 2.388,-5.672 H -40.065 Z" /></g><g
           transform="translate(199.4375,427.7544)"
           id="g44"><path
             id="path46"
             style="fill:#206b33;fill-opacity:1;fill-rule:nonzero;stroke:none"
             d="m 0,0 c -5.138,-26.893 -1.621,-21.658 -26.729,-19.42 24.687,-11.657 22.382,-6.043 10.209,-31.427 10.707,8.898 16.058,16.053 16.52,23.93 0.463,-7.877 5.813,-15.032 16.52,-23.93 C 4.347,-25.463 2.042,-31.077 26.73,-19.42 1.621,-21.658 5.139,-26.893 0,0" /></g><g
           transform="translate(212.436,417.5742)"
           id="g48"><path
             id="path50"
             style="fill:#206b33;fill-opacity:1;fill-rule:nonzero;stroke:none"
             d="m 0,0 c -1.65,1.212 -3.972,0.863 -5.185,-0.788 -1.212,-1.65 -0.862,-3.971 0.788,-5.188 1.65,-1.213 3.972,-0.858 5.185,0.791 C 2.004,-3.534 1.65,-1.213 0,0" /></g><g
           transform="translate(186.439,417.5742)"
           id="g52"><path
             id="path54"
             style="fill:#206b33;fill-opacity:1;fill-rule:nonzero;stroke:none"
             d="M 0,0 C 1.65,1.212 3.972,0.863 5.185,-0.788 6.397,-2.438 6.047,-4.759 4.397,-5.976 2.747,-7.189 0.425,-6.834 -0.788,-5.185 -2.004,-3.534 -1.65,-1.213 0,0" /></g></g></g></g></svg>